HIERARCHY
ROOT Hips
{
  OFFSET -82.9664 101.758 -139.547
  CHANNELS 6 Xposition Yposition Zposition Zrotation Xrotation Yrotation
  JOINT RightUpLeg
  {
    OFFSET -8.9458 -8.66707 0.101652
    CHANNELS 3 Zrotation Xrotation Yrotation
    JOINT RightLeg
    {
      OFFSET 0 -44.4227 1.3727
      CHANNELS 3 Zrotation Xrotation Yrotation
      JOINT RightFoot
      {
        OFFSET 0.253549 -42.0924 -1.46059
        CHANNELS 3 Zrotation Xrotation Yrotation
        JOINT RightToes
        {
          OFFSET 0.04 -4.41509 8.4991
          CHANNELS 3 Zrotation Xrotation Yrotation
          End Site
          {
            OFFSET -0.08 -0.137448 9.77979
          }
        }
      }
    }
  }
  JOINT Spine
  {
    OFFSET 0 11.8905 0
    CHANNELS 3 Zrotation Xrotation Yrotation
    JOINT Spine1
    {
      OFFSET 0 25.6574 0.127663
      CHANNELS 3 Zrotation Xrotation Yrotation
      JOINT HEad
      {
        OFFSET 0 8.73416 0.011341
        CHANNELS 3 Zrotation Xrotation Yrotation
        End Site
        {
          OFFSET -0.29 12.7742 2.51395
        }
      }
      JOINT LeftShoulder1
      {
        OFFSET 8.99 -0.362252 -0.22
        CHANNELS 3 Zrotation Xrotation Yrotation
        JOINT LeftArm
        {
          OFFSET 10.2827 -0.00337999 0.322123
          CHANNELS 3 Zrotation Xrotation Yrotation
          JOINT LeftForeArm
          {
            OFFSET 26.2597 0.099144 -1.42434
            CHANNELS 3 Zrotation Xrotation Yrotation
            JOINT LeftHand
            {
              OFFSET 22.0902 0.085362 1.02216
              CHANNELS 3 Zrotation Xrotation Yrotation
              End Site
              {
                OFFSET 13.419 -0.6 1.50291
              }
            }
          }
        }
      }
      JOINT RightShoulder
      {
        OFFSET -8.99 -0.362252 -0.22
        CHANNELS 3 Zrotation Xrotation Yrotation
        JOINT RightArm
        {
          OFFSET -10.2827 -0.00338 0.322123
          CHANNELS 3 Zrotation Xrotation Yrotation
          JOINT RightForeArm
          {
            OFFSET -26.364 0.099144 -1.42434
            CHANNELS 3 Zrotation Xrotation Yrotation
            JOINT RightHand
            {
              OFFSET -22.0324 0.085362 1.02216
              CHANNELS 3 Zrotation Xrotation Yrotation
              End Site
              {
                OFFSET -13.3284 -0.6 1.50291
              }
            }
          }
        }
      }
    }
  }
  JOINT LeftUpLeg
  {
    OFFSET 8.9458 -8.66707 0.101652
    CHANNELS 3 Zrotation Xrotation Yrotation
    JOINT LeftLeg
    {
      OFFSET 0 -44.4227 1.3727
      CHANNELS 3 Zrotation Xrotation Yrotation
      JOINT LeftFoot
      {
        OFFSET -0.253549 -42.0924 -1.46059
        CHANNELS 3 Zrotation Xrotation Yrotation
        JOINT LeftToes
        {
          OFFSET -0.04 -4.41509 8.4991
          CHANNELS 3 Zrotation Xrotation Yrotation
          End Site
          {
            OFFSET 0.08 -0.047448 9.77979
          }
        }
      }
    }
  }
}
MOTION
Frames:	16
Frame Time:	0.0333333
-29.2768 107.248 -147.316 -13.8312 4.93256 67.2615 0.43064 -2.00956 -1.75792 -3.66594 4.14482 22.8113 8.67719 2.40296 -0.868724 0.0462048 0.000530889 0.662642 5.09699 3.85887 -1.1741 -20.1058 -4.86412 1.43271 17.6821 21.7067 -46.5431 -7.20221 2.16552 -11.0313 -32.8955 -18.5973 4.27745 17.1665 31.4213 -65.4452 13.1296 9.44417 1.22055 -39.4136 4.13567 -18.1836 36.9343 -62.1701 71.448 -6.64985 -6.08574 3.48548 22.2331 12.6385 8.20158 14.9711 -10.4007 16.1194 -1.64587 21.9255 -12.2209 -25.2487 7.45373 3.30877 -1.33897e-009 8.75235e-006 -1.47469e-008 
-26.2852 99.689 -145.717 -14.0413 4.51873 68.9495 -0.64028 -5.04664 5.36516 -0.621585 18.6818 17.9353 -5.62138 -17.2904 -0.720181 0.0462048 0.000530889 0.662642 5.82042 4.20696 -1.18145 -19.1063 -4.4709 1.28903 20.1177 20.5337 -46.8365 -10.097 2.56019 -11.122 -33.0024 -17.7955 -5.18891 19.1932 32.4885 -65.5063 13.4968 9.45693 1.46152 -38.6776 3.35956 -15.6077 64.8836 -70.6792 92.3549 -4.36009 11.2332 14.914 18.7889 12.6409 10.6134 13.0308 -7.82645 20.1927 -1.58634 25.2657 -6.26878 -12.1042 -14.9477 -0.711631 -1.33897e-009 8.75235e-006 -1.47469e-008 
-24.05 93.4323 -143.727 -13.7157 4.47795 72.1732 -1.43882 -11.8913 -2.17556 0.534693 41.2139 20.0124 -14.5785 -30.1272 -3.34634 0.0462048 0.000530889 0.662642 3.98224 8.08149 -2.51673 -17.8475 -6.7854 -0.594492 25.0936 18.1411 -46.7915 -18.9039 3.57643 -10.4813 -31.7843 -13.3663 -22.6355 18.2977 34.2503 -59.8211 12.9812 9.61789 2.84579 -32.6955 1.74179 -10.9771 119.648 -72.5181 140.708 -5.21035 31.4715 34.0975 14.1455 12.146 11.8051 12.6346 -6.35785 17.543 -0.175767 27.844 -5.04924 -9.00976 -31.525 -1.79782 -1.33897e-009 8.75235e-006 -1.47469e-008 
-21.2892 88.4883 -140.816 -14.2925 6.4767 75.1415 -6.612 -24.3427 -11.1864 1.33978 69.7037 20.5918 -5.77769 -21.8707 -1.0078 0.0462048 0.000530889 0.662642 -4.75463 11.4611 -3.5274 -11.9929 -6.8521 -3.09232 30.1096 12.7922 -43.9747 -31.6601 6.31691 -13.1483 -25.8725 -9.89562 -35.6115 18.5667 35.2213 -57.9813 12.3116 9.60612 2.57441 -19.7011 0.555639 -7.35642 141 -81.1586 158.255 0.60249 23.7196 53.9609 10.8628 11.5749 11.0513 11.2941 -8.40855 8.82599 0.375317 34.7403 -0.765112 -13.9613 -41.2899 -4.20389 -1.33897e-009 8.75235e-006 -1.47469e-008 
-17.7821 85.8772 -137.276 -15.2265 7.60226 76.3109 -12.1509 -38.4329 -18.9235 153.074 89.0862 -132.685 -7.70465 -0.462324 0.361269 0.0462048 0.000530889 0.662642 -11.6558 14.9257 -3.84336 -2.56128 -7.62604 -5.18485 28.1701 8.89829 -37.8478 -35.8132 8.21992 -15.9567 -28.9246 -5.48399 -42.9054 24.8214 37.631 -62.0679 11.8466 9.59457 2.33023 -11.0333 0.205518 -2.52561 160.262 -85.2873 168.877 0.754251 23.4282 77.5992 8.79001 10.9357 7.03605 13.5824 -6.95563 11.6322 0.1338 35.9284 -6.16638 -16.0918 -43.2975 -5.21747 -1.33897e-009 8.75235e-006 -1.47469e-008 
-12.5591 84.8048 -133.481 -16.4669 7.31191 73.8797 -14.0224 -48.6129 -24.5207 177.009 80.2749 -153.974 -9.2559 -5.50195 0.0183806 0.0462048 0.000530889 0.662642 -8.22394 16.0156 -3.82538 -1.94424 -8.4088 -4.74185 19.0268 7.01931 -31.9373 -35.4122 8.62706 -17.102 -33.0227 0.523957 -48.1486 27.5837 39.2291 -62.7589 10.6288 9.61395 2.17608 -3.52513 0.635179 4.27865 -7.30302 -83.6018 -2.24968 -3.93003 22.7103 96.4199 9.22053 10.6074 2.80722 14.9571 -0.409872 11.6607 0.23015 29.9065 -5.48057 -19.5761 -40.8189 -5.92767 -1.33897e-009 8.75235e-006 -1.47469e-008 
-7.02535 84.5647 -129.662 -18.0601 7.50077 72.0343 -17.1846 -57.8383 -32.8366 175.783 81.8965 -150.085 -9.7662 -11.1638 -0.498633 0.0462048 0.000530889 0.662642 -2.69537 16.3539 -4.35931 -0.978388 -6.72743 -4.32561 11.2901 4.16227 -26.2644 -32.8149 8.32177 -17.7028 -33.5407 3.42251 -51.1243 32.8602 40.9487 -66.123 10.0715 9.64337 2.3545 2.33022 1.67213 10.2799 8.81001 -66.8825 16.5164 0.936733 23.3588 91.1523 13.5563 11.3255 6.04715 14.589 3.97895 6.78162 0.528608 26.3604 0.878169 -25.1376 -34.0567 -6.02932 -1.33897e-009 8.75235e-006 -1.47469e-008 
-1.31386 85.2583 -125.088 -19.6613 8.75631 68.7357 -17.8205 -65.0225 -39.36 4.71534 85.8917 13.5835 -13.2265 -15.3576 -1.13403 0.0462048 0.000530889 0.662642 3.63882 17.1779 -4.71442 -3.94705 -5.47008 -3.14493 7.28354 3.64063 -22.8075 -31.5199 8.22167 -18.1582 -30.3794 0.593603 -48.7075 34.0409 42.7937 -64.8741 9.86819 9.71195 3.18153 6.3405 3.075 16.621 20.8828 -46.7832 29.1184 -0.60034 23.7894 72.9141 12.3134 11.4796 8.44639 14.7321 7.15329 6.95718 0.539542 24.6738 1.92458 -28.0264 -21.8151 -3.51898 -1.33897e-009 8.75235e-006 -1.47469e-008 
4.84681 86.2707 -119.632 -20.8908 11.8625 65.2839 -12.027 -66.0111 -38.9543 0.634788 63.2526 16.301 -10.8835 -17.7231 -1.22132 0.0462048 0.000530889 0.662642 10.2627 18.3025 -4.60033 -11.7817 -4.44495 -0.74278 6.46621 2.11806 -23.9156 -32.8822 7.89825 -16.6085 -27.7071 -4.46318 -44.769 23.2057 44.313 -48.9668 6.43367 9.78197 3.28603 12.8734 5.57017 22.9078 23.0462 -35.2107 32.1225 -4.03542 26.9546 51.3079 9.69563 11.3378 10.3012 13.4912 5.54526 2.39095 0.437693 29.1386 1.86101 -23.3431 -4.38549 0.689366 -1.33897e-009 8.75235e-006 -1.47469e-008 
10.9075 86.8614 -113.903 -21.6165 15.0706 63.993 -5.70309 -65.2353 -35.6089 0.131665 55.2787 10.9928 -32.268 -14.0932 -2.11232 0.0462048 0.000530889 0.662642 15.0659 21.5712 -3.14039 -13.7478 -2.73976 1.63661 4.00323 -1.15639 -27.2432 -36.5371 8.3565 -15.9362 -22.31 -5.61869 -37.9735 9.18806 42.2735 -27.4903 4.65609 9.81413 3.29041 22.5763 8.90855 25.9674 13.5547 -25.1773 27.1225 -8.48061 32.974 41.4062 4.9688 10.5247 7.03273 11.3629 -2.56376 -3.46199 0.0948943 41.9924 -6.48338 -8.9305 10.5829 1.33901 -1.33897e-009 8.75235e-006 -1.47469e-008 
17.3076 85.6389 -107.578 -22.31 19.0294 65.6115 -7.91639 -65.4144 -33.0286 -0.2927 62.6269 5.47381 -34.2522 -23.0566 -5.18836 0.0462048 0.000530889 0.662642 14.8757 22.46 -1.55481 -10.6908 -2.87772 2.47957 0.881794 -3.67831 -30.2679 -38.5756 8.65869 -15.6929 -25.5899 -18.4618 -29.839 -10.5738 62.8482 -3.5627 3.04584 9.86924 4.77843 30.3044 9.89573 22.7153 8.30802 -12.0386 25.1929 -10.0321 36.5747 36.7733 -0.029877 9.96522 4.24628 10.4726 -12.473 -3.29529 -0.328706 58.4216 -12.6912 -9.77734 7.62718 1.24129 -1.33897e-009 8.75235e-006 -1.47469e-008 
23.7206 84.8006 -101.257 -25.925 22.1288 66.0284 -6.23301 -65.3756 -31.3609 -0.377049 66.4746 5.06228 -35.009 -28.2801 -7.11899 0.0462048 0.000530889 0.662642 15.7639 18.8974 -1.03948 -10.3888 -0.270238 2.7468 -0.0396904 -9.14384 -30.0079 -38.7966 8.25229 -14.7117 -20.2635 -21.3492 -14.9426 -27.3749 70.1229 16.2194 0.0149837 9.87788 5.60153 33.0022 10.554 22.5844 8.74048 -7.0876 22.9119 -6.73662 33.5243 33.935 2.39873 10.1923 5.10997 12.4046 -26.8071 0.228894 0.2664 75.9238 -6.36475 -2.94761 4.64234 0.272399 -1.33897e-009 8.75235e-006 -1.47469e-008 
30.0599 84.158 -94.801 -28.0767 23.9615 65.5563 -3.41655 -62.2637 -29.7494 -0.3013 68.8125 6.14486 -34.3303 -31.6244 -8.14314 0.0462048 0.000530889 0.662642 17.6572 16.1761 -1.12687 -12.1931 2.44358 3.17921 1.56 -13.1274 -29.63 -38.0463 7.39004 -13.116 -14.2547 -17.6404 4.61335 -16.7631 60.2163 4.28199 5.75977 9.87093 5.16135 35.0242 11.2687 22.9945 9.29008 -5.75848 18.5096 -10.6453 35.6721 40.4393 -0.651266 9.91741 5.49372 14.9586 -40.2439 2.53407 50.0728 89.5974 -49.1748 3.49505 -2.22979 -0.168316 -1.33897e-009 8.75235e-006 -1.47469e-008 
36.3389 84.2507 -87.7243 -27.1299 26.4191 63.5335 -3.46645 -54.998 -29.8142 0.115192 68.5886 10.0823 -32.5867 -32.8486 -8.13354 0.0462048 0.000530889 0.662642 14.9232 16.2962 0.142781 -10.9132 3.14367 3.93049 1.49449 -12.6646 -31.461 -34.8569 5.67252 -10.3006 -17.3801 -6.77009 19.9469 -7.6464 45.7094 -9.31059 10.2467 9.77986 4.12358 35.2359 10.0659 20.0608 11.5899 -4.07965 15.656 -16.8763 37.4342 50.2139 -5.37599 9.52777 4.06347 14.6622 -51.1917 3.39872 175.925 83.4339 -170.491 5.33712 -10.2255 0.167734 -1.33897e-009 8.75235e-006 -1.47469e-008 
42.5332 84.8862 -80.1392 -23.9187 28.7099 59.8334 -4.15934 -45.233 -29.5229 0.502427 65.9977 14.2776 -28.6201 -31.1714 -6.65248 0.0462048 0.000530889 0.662642 10.3267 17.4342 2.03463 -9.8559 3.18144 5.39349 0.715489 -8.14332 -33.8827 -27.936 4.61031 -9.98584 -28.6683 0.315792 32.8374 -1.4421 35.1227 -18.2447 11.0863 9.65375 2.77908 33.8824 8.69117 17.5172 14.5206 -4.37891 11.8924 -16.7957 35.0487 55.3825 -5.74513 9.49119 4.21982 13.1639 -59.8759 4.78591 175.219 83.5304 -167.7 6.7227 -16.5069 0.616719 -1.33897e-009 8.75235e-006 -1.47469e-008 
48.5911 85.8928 -71.8968 -19.956 30.4525 55.0636 -4.00678 -34.1857 -27.6662 0.646412 59.8875 17.4901 -22.0158 -26.6014 -4.14268 0.0462048 0.000530889 0.662642 4.47795 18.6008 3.73804 -9.38221 4.39933 6.80344 1.39295 -5.18046 -34.64 -23.5544 4.07644 -10.1063 -33.4241 -2.65897 42.4861 1.93547 29.8841 -23.9728 15.0977 9.50662 2.31675 32.4568 7.91958 16.3333 17.3303 -4.63371 10.3422 -17.4531 34.0193 59.0251 -5.20408 9.52264 4.58963 12.7055 -66.7732 8.31067 105.874 89.4423 -98.5286 5.59995 -20.4799 0.755954 -1.33897e-009 8.75235e-006 -1.47469e-008 
